<svg xmlns="http://www.w3.org/2000/svg" preserveAspectRatio="xMidYMid meet" viewBox="0 0 1600 900">
  <defs>
    <linearGradient id="dial-stroke">
      <stop offset="0%" stop-color="#ff4000"></stop>
      <stop offset="50%" stop-color="white"></stop>
      <stop offset="100%" stop-color="#00ff99"></stop>
    </linearGradient>
    <filter id="drop-shadow"><feDropShadow dx="0" dy="5" stdDeviation="10" flood-opacity="0.3"></feDropShadow></filter>
    <filter id="arrow-shadow"><feDropShadow dx="0" dy="0" stdDeviation="10" flood-opacity="0.5"></feDropShadow></filter>
  </defs>
  <rect width="1600" height="800" fill="black" />
  <path id="dial" d="M 150 800 a 650 650 0 0 1 1300 0" stroke-width="300" stroke="url(#dial-stroke)" fill="none"></path>
  <g filter="url(#drop-shadow)"><circle cx="1430" cy="680" r="100" fill="white"></circle>
    <ellipse cx="1430" cy="550" rx="100" ry="15" stroke="white" stroke-width="10" fill="none"></ellipse>
  </g>
  <g filter="url(#drop-shadow)">
    <circle cx="170" cy="680" r="100" fill="black"></circle>
    <path d="M 120 620 q -50 -20 -20 -80 q 0 40 60 60 z" stroke="none" fill="black"></path>
    <path d="M 230 620 q 50 -20 20 -80 q 0 40 -60 60 z" stroke="none" fill="black"></path>
  </g>
  <path d="M 125 635 q -20 30 30 40 q 10 0 5 -5 q -10 -10 -20 -35 q -5 -10 -15 0" stroke="none" fill="red"></path>
  <path d="M 225 635 q 20 30 -30 40 q -10 0 -5 -5 q 10 -10 20 -35 q 5 -10 15 0" stroke="none" fill="red"></path>
  <g transform="rotate(127.76470588235294)" transform-origin="800 800" filter="url(#arrow-shadow)">
    <path d="M 700 800 l 0 30 l -450 0 l 0 70 l -150 -100 l 150 -100 l 0 70 l 450 0" fill="white"></path>
  </g>
</svg>